HIERARCHY
ROOT Hips
{
  OFFSET 47.347 93.3489 130.563
  CHANNELS 6 Xposition Yposition Zposition Zrotation Xrotation Yrotation
  JOINT ToSpine
  {
    OFFSET -2.69724 7.43032 -0.144315
    CHANNELS 3 Zrotation Xrotation Yrotation
    JOINT Spine
    {
      OFFSET -0.0310711 10.7595 1.96963
      CHANNELS 3 Zrotation Xrotation Yrotation
      JOINT Spine1
      {
        OFFSET 13.1342 3.43533 0.764692
        CHANNELS 3 Zrotation Xrotation Yrotation
        JOINT Neck
        {
          OFFSET 29.8703 7.82586 -0.130764
          CHANNELS 3 Zrotation Xrotation Yrotation
          JOINT Head
          {
            OFFSET 9.52751 0.295786 -0.907742
            CHANNELS 3 Zrotation Xrotation Yrotation
            End Site
            {
              OFFSET 16.4037 0.713936 2.7358
            }
          }
        }
        JOINT LeftShoulder
        {
          OFFSET 27.5574 4.95586 2.47156
          CHANNELS 3 Zrotation Xrotation Yrotation
          JOINT LeftArm
          {
            OFFSET 1.20734 -0.998971 20.1238
            CHANNELS 3 Zrotation Xrotation Yrotation
            JOINT LeftForeArm
            {
              OFFSET 26.8049 -0.0536703 -0.155908
              CHANNELS 3 Zrotation Xrotation Yrotation
              JOINT LeftHand
              {
                OFFSET 26.6817 0 0.320147
                CHANNELS 3 Zrotation Xrotation Yrotation
                End Site
                {
                  OFFSET 18.6119 0 0.382219
                }
              }
            }
          }
        }
        JOINT RightShoulder
        {
          OFFSET 27.5927 4.71444 -2.65209
          CHANNELS 3 Zrotation Xrotation Yrotation
          JOINT RightArm
          {
            OFFSET 2.83739 -1.17114 -18.7564
            CHANNELS 3 Zrotation Xrotation Yrotation
            JOINT RightForeArm
            {
              OFFSET 28.839 -0.0548439 1.22491
              CHANNELS 3 Zrotation Xrotation Yrotation
              JOINT RightHand
              {
                OFFSET 26.5114 0 -0.101894
                CHANNELS 3 Zrotation Xrotation Yrotation
                End Site
                {
                  OFFSET 18.2168 0 0
                }
              }
            }
          }
        }
      }
    }
  }
  JOINT LeftUpLeg
  {
    OFFSET -4.76168 -1.9167 -10.2353
    CHANNELS 3 Zrotation Xrotation Yrotation
    JOINT LeftLeg
    {
      OFFSET 2.55951 -42.0585 -8.02213
      CHANNELS 3 Zrotation Xrotation Yrotation
      JOINT LeftFoot
      {
        OFFSET 3.16357 -42.5282 -3.95426
        CHANNELS 3 Zrotation Xrotation Yrotation
        JOINT LeftToeBase
        {
          OFFSET 0.346054 -6.02161 12.8035
          CHANNELS 3 Zrotation Xrotation Yrotation
          End Site
          {
            OFFSET 0.134235 -1.35082 5.13018
          }
        }
      }
    }
  }
  JOINT RightUpLeg
  {
    OFFSET -4.94151 -1.41743 10.6446
    CHANNELS 3 Zrotation Xrotation Yrotation
    JOINT RightLeg
    {
      OFFSET -2.56294 -42.0364 -7.94377
      CHANNELS 3 Zrotation Xrotation Yrotation
      JOINT RightFoot
      {
        OFFSET -3.0952 -42.555 -4.02241
        CHANNELS 3 Zrotation Xrotation Yrotation
        JOINT RightToeBase
        {
          OFFSET -0.0828122 -6.13587 12.8035
          CHANNELS 3 Zrotation Xrotation Yrotation
          End Site
          {
            OFFSET -0.131328 -1.35082 5.13018
          }
        }
      }
    }
  }
}
MOTION
Frames:	11
Frame Time:	0.0333333
29.644 94.4886 154.038 -23.9548 -67.3346 -118.594 -70.1915 0 88.8779 78.378 65.1266 0.195876 -1.85583 14.0373 9.4575 -150.973 21.4495 175.844 -152.119 59.2122 171.975 0.421514 -15.668 -21.9525 -87.3872 54.1273 -128.279 -10.9887 5.31918 -115.096 -0.313652 0.00983596 -0.118165 -0.388448 3.52371 27.5559 -71.9794 -38.5757 119.25 4.7013 3.75003 127.633 0.58676 0.000331022 0.0646653 -65.796 5.9448 94.1807 -1.43597 31.488 -9.25608 -1.72976 -5.44857 -0.37612 8.28806 -17.6697 15.1442 -27.8856 3.57623 97.1558 2.76253 46.7325 3.12209 -6.71257 -11.1235 1.23529 0.728637 -2.88058 -2.85035 
29.501 94.538 153.065 -7.70128 -68.4966 -101.802 -70.1915 0 88.8779 78.4447 65.3223 0.285565 -1.91661 14.3025 9.25664 -150.485 22.5534 177.255 -154.125 60.6618 174.024 0.404279 -15.5369 -22.4806 -85.0158 52.8268 -129.915 -11.3521 5.14355 -113.619 -0.80512 0.0158701 0.0248399 -0.376925 3.8579 25.9981 -75.9426 -39.5751 120.183 4.14172 3.22783 126.878 0.58676 0.000331022 0.0646653 -64.6172 7.93564 97.4008 -0.445589 29.328 -7.17246 -1.88813 -6.6294 -0.477348 7.47205 -16.473 14.6641 -27.0317 -0.263217 94.5728 2.69462 46.7362 2.62998 -5.64838 -11.9229 1.22321 0.711908 -2.21842 -3.19535 
29.5459 94.5141 151.906 7.28679 -68.4218 -86.0951 -70.1915 0 88.8779 81.0992 65.6773 -1.12524 -2.07501 15.0388 7.54661 -148.835 23.6292 176.123 -153.636 61.7903 174.127 0.313333 -16.0861 -22.6297 -83.9024 50.2374 -130.913 -11.1171 4.65116 -111.967 -0.475905 0.012467 0.327311 -0.450461 4.2427 26.3301 -80.8079 -39.6437 120.084 4.55077 3.47664 126.403 0.58676 0.000331022 0.0646653 -63.4788 9.90157 98.2337 -0.44255 29.4973 -0.591953 -2.28761 -6.16726 -0.402839 5.60706 -13.2695 10.5863 -26.7856 -3.41813 91.6264 2.68638 46.7058 2.50317 -4.49619 -12.626 1.21979 0.836869 -1.2651 -4.56786 
29.6289 94.5081 150.637 19.1699 -67.6519 -73.1849 -70.1915 0 88.8779 84.8006 65.7769 -4.24751 -2.25359 14.0152 7.28017 -147.608 24.8503 177.216 -156.842 63.4315 177.377 0.223171 -16.3177 -23.3481 -84.7627 47.478 -129.549 -8.16952 3.23674 -111.082 0.309851 0.00334291 0.425017 -0.503991 5.13528 24.9074 -86.0635 -40.4383 119.475 4.70955 3.4847 125.585 0.58676 0.000331022 0.0646653 -62.5384 11.9813 98.4671 -0.722324 31.2263 2.99757 -2.1272 -3.69671 -0.174189 3.64021 -9.44804 7.65839 -27.4453 -5.79057 89.3892 2.43801 45.9249 1.38339 -4.4094 -12.9884 1.23457 0.896812 -1.64037 -4.82905 
29.8507 94.534 149.328 29.6693 -65.8991 -61.5165 -70.1915 0 88.8779 85.1154 66.1132 -4.14926 -1.28616 13.8831 6.30125 -144.307 25.6215 172.943 -152.059 64 173.435 0.3198 -16.1661 -21.8304 -81.9818 45.8843 -132.587 -5.23044 1.70819 -107.716 0.436108 0.00173714 0.353772 -0.506595 4.76199 26.009 -91.235 -39.0916 118.795 3.61727 2.6701 125.367 0.58676 0.000331022 0.0646653 -61.5916 13.7831 98.0432 -1.14356 32.6755 1.6389 -1.69536 0.109759 0.138346 3.73312 -9.44978 6.63327 -28.3045 -7.82177 87.6972 2.36191 45.078 1.33244 -3.61701 -13.8884 1.26402 1.52023 -0.210154 -9.34999 
30.3407 94.674 148.149 37.4834 -63.4669 -52.5614 -70.1915 0 88.8779 84.7055 66.7455 -2.9692 -1.10006 14.7299 6.13351 -140.458 26.1243 171.123 -150.707 64.7629 174.065 0.314568 -16.1621 -21.9685 -78.781 44.8009 -134.536 -2.94697 0.89816 -106.907 0.420973 0.00192377 0.358658 -0.576793 5.19927 26.1629 -95.5289 -38.2637 117.599 4.46993 3.2184 124.82 0.58676 0.000331022 0.0646653 -60.6662 14.9901 97.5853 -1.33196 33.3464 0.557261 -0.890724 2.3154 0.221218 2.61991 -7.03862 5.09292 -29.2973 -9.84919 85.8035 2.11931 43.7326 0.525251 -3.28859 -14.3305 1.28377 1.5781 0.429794 -9.86199 
31.1609 94.7506 146.818 42.767 -61.3401 -45.9138 -70.1915 0 88.8779 84.9223 67.2456 -1.15774 -0.332708 15.8243 4.64734 -138.494 26.4675 169.631 -152.504 65.6845 176.365 0.411188 -15.6879 -21.1093 -76.1906 44.0157 -136.842 -0.900863 0.239567 -106.144 0.420973 0.00192377 0.358658 -0.548148 5.14424 25.6356 -99.7567 -38.5055 116.451 6.97896 4.85375 124.02 0.58676 0.000331022 0.0646653 -60.3001 15.9341 96.9903 -1.36033 33.1705 0.241184 -1.29875 4.78697 0.502744 3.45019 -8.18595 3.11038 -30.5314 -11.2394 84.3036 1.93621 42.0862 0.148488 -2.93259 -14.2178 1.27808 1.77955 -0.694791 -10.9264 
32.1758 94.8984 145.375 47.0328 -58.8129 -40.2774 -70.1915 0 88.8779 84.9518 66.9994 0.239981 0.105219 15.5826 4.69986 -139.01 27.3201 173.341 -161.607 66.8912 -175.325 0.535474 -14.3422 -22.0475 -74.2257 42.4825 -137.504 -0.426924 0.0964033 -106.234 0.420973 0.00192377 0.358658 -0.553748 6.08385 23.6238 -101.489 -39.7942 116.665 10.5197 6.92951 122.521 0.58676 0.000331022 0.0646653 -59.6473 15.8557 95.2072 -1.30999 32.4906 -0.187329 -4.1059 4.3716 0.934451 4.90832 -10.8717 2.00897 -31.8484 -12.9223 82.4852 1.71927 40.1586 -0.340836 -1.49275 -14.3947 1.28068 1.8667 -0.426334 -11.5304 
33.4481 95.0099 143.9 50.3684 -56.7786 -36.0756 -70.1915 0 88.8779 85.3214 67.9114 0.836681 0.411894 16.919 3.43924 -135.965 27.3474 167.536 -155.273 67.4291 179.232 0.508223 -14.9719 -20.8915 -71.7209 42.1091 -139.785 0.221467 -0.0908335 -105.069 0.420973 0.00192377 0.358658 -0.663763 5.60527 26.7073 -107.245 -35.7409 113.386 8.8752 5.97832 123.161 0.58676 0.000331022 0.0646653 -59.6727 14.9964 94.4859 -0.862944 30.6583 -0.703107 -4.38343 3.236 0.853193 6.17436 -13.3647 1.73149 -33.4273 -14.9018 80.7777 1.53494 38.0023 -0.691223 -0.876001 -12.9037 1.1692 1.54755 -1.00287 -9.32051 
34.7766 95.0233 142.253 52.4933 -54.7022 -33.0855 -70.1915 0 88.8779 83.8021 68.6416 2.09933 0.721569 17.3131 4.61601 -134.765 27.9452 166.799 -156.053 68.3387 -179.498 0.450296 -15.2248 -21.5122 -71.5948 41.9689 -139.653 2.32549 -0.677074 -104.908 0.420973 0.00192377 0.358658 -0.572949 5.25913 25.8907 -110.579 -35.3641 111.383 8.51288 5.69555 122.987 0.58676 0.000331022 0.0646653 -58.7179 14.6971 95.4881 -0.671133 29.8211 -2.79612 -4.77771 0.959205 0.633457 6.34624 -13.8072 2.92722 -34.4904 -16.6977 79.4469 1.4134 35.864 -1.52328 -0.00721677 -10.9935 1.00556 1.19439 0.0708732 -7.4435 
36.1884 94.9439 140.496 53.7748 -53.2115 -31.1538 -70.1915 0 88.8779 86.2621 69.3513 -0.172807 -0.854246 17.9309 4.94555 -132.941 28.016 165.014 -155.015 68.7757 179.735 0.483375 -15.0202 -21.3046 -69.6441 41.9597 -140.058 1.83387 -0.543521 -105.007 0.420973 0.00192377 0.358658 -0.602451 5.01873 27.1829 -113.578 -33.423 108.931 7.89867 5.38199 123.452 0.58676 0.000331022 0.0646653 -57.6446 14.0371 96.0162 -0.833624 30.0257 -3.86919 -6.61104 -2.06841 0.488596 5.94457 -13.3766 5.56886 -35.4033 -17.9927 79.2723 1.41582 33.5514 -2.67789 0.0536071 -8.92218 0.835125 0.99582 0.829391 -6.51981 
